<svg width="26" height="25" viewBox="0 0 26 25" fill="none" xmlns="http://www.w3.org/2000/svg">
<path d="M25.2799 21.6162L20.3391 16.748C20.1161 16.5283 19.8138 16.4062 19.4966 16.4062H18.6888C20.0566 14.6826 20.8693 12.5146 20.8693 10.1562C20.8693 4.5459 16.2556 0 10.5615 0C4.86741 0 0.253662 4.5459 0.253662 10.1562C0.253662 15.7666 4.86741 20.3125 10.5615 20.3125C12.9551 20.3125 15.1554 19.5117 16.9048 18.1641V18.96C16.9048 19.2725 17.0287 19.5703 17.2517 19.79L22.1925 24.6582C22.6583 25.1172 23.4116 25.1172 23.8725 24.6582L25.2749 23.2764C25.7408 22.8174 25.7408 22.0752 25.2799 21.6162ZM10.5615 16.4062C7.05783 16.4062 4.21821 13.6133 4.21821 10.1562C4.21821 6.7041 7.05287 3.90625 10.5615 3.90625C14.0652 3.90625 16.9048 6.69922 16.9048 10.1562C16.9048 13.6084 14.0701 16.4062 10.5615 16.4062Z" fill="#00BAEF"/>
</svg>
