<svg width="106" height="106" viewBox="0 0 106 106" fill="none" xmlns="http://www.w3.org/2000/svg">
<circle cx="52.9676" cy="52.9676" r="52.4379" fill="#EBFAFF" stroke="#00BAEF" stroke-width="1.05935"/>
<path d="M78.1839 82.026C76.5463 81.7723 75.3392 80.8236 74.2119 79.6744C71.4987 76.908 68.7417 74.187 66.005 71.444C65.85 71.289 65.7263 71.1027 65.5087 70.8319C64.8872 71.5427 64.347 72.1611 63.7975 72.7905C63.2464 72.219 62.8018 71.7572 62.2898 71.2264C62.8691 70.6972 63.4625 70.154 64.1858 69.4933C63.5361 68.8937 62.963 68.3347 62.3493 67.8243C62.2413 67.7335 61.9376 67.7805 61.7763 67.8635C59.8428 68.8608 57.8059 69.534 55.6485 69.8252C51.1427 70.4342 46.9265 69.5794 43.0689 67.1871C38.7681 64.5178 35.9814 60.6836 34.6412 55.8005C34.5567 55.4905 34.5066 55.1695 34.4377 54.8548C34.3688 54.5449 34.2968 54.2364 34.2107 53.8623C30.306 55.2149 28.2598 57.9015 27.9811 61.9893C27.3329 61.9893 26.7004 61.9893 26.01 61.9893C26.0131 60.1169 26.4734 58.3916 27.405 56.7978C28.8124 54.3899 30.8681 52.7898 33.5453 52.0133C33.9476 51.8959 34.0244 51.7205 34.015 51.3401C33.8052 43.0048 39.4523 35.2472 47.451 32.8862C48.3152 32.631 49.1998 32.4432 50.1078 32.2177C49.6131 30.3797 48.6127 28.9018 47.1348 27.7683C45.6553 26.6332 43.9597 26.0461 42.0403 26.0414C42.0403 25.3604 42.0403 24.7279 42.0403 24.0249C44.4403 24.0406 46.5821 24.7795 48.4608 26.2559C50.3489 27.7385 51.5513 29.683 52.1541 32.0236C56.9793 31.9171 61.2941 33.2776 65.0124 36.3462C68.7229 39.4086 70.9351 43.357 71.7649 48.176C75.7087 46.8358 77.7346 44.1242 78.0242 40.0489C78.1432 40.0348 78.2402 40.0129 78.3358 40.0129C78.8587 40.0098 79.38 40.0113 80.0861 40.0113C79.917 41.0086 79.8544 41.973 79.582 42.8764C78.4845 46.5289 76.0781 48.9196 72.4303 50.0343C72.0655 50.1455 71.9747 50.2989 71.9825 50.6637C72.0467 53.8278 71.3641 56.8291 69.8971 59.6362C69.6513 60.1075 69.7077 60.3705 70.0803 60.7024C70.5609 61.1298 70.9915 61.612 71.4831 62.1114C72.0702 61.4742 72.626 60.8699 73.2021 60.2437C73.747 60.8182 74.1885 61.2832 74.691 61.8124C74.118 62.3353 73.5246 62.877 72.8906 63.4547C73.0957 63.6771 73.235 63.8383 73.3853 63.9886C76.1095 66.7159 78.8195 69.4557 81.5672 72.1595C82.7367 73.3102 83.759 74.5173 84.0001 76.2113C84.0001 76.6152 84.0001 77.0192 84.0001 77.4231C83.6776 78.8462 83.1218 80.1645 81.8443 80.9645C81.0991 81.431 80.2176 81.68 79.3988 82.026C78.9917 82.026 78.5878 82.026 78.1839 82.026ZM65.9815 51.0301C65.9925 43.8721 60.2248 38.0794 53.0387 38.034C45.8791 37.9886 40.0269 43.8189 40.0144 51.0097C40.0034 58.1677 45.7711 63.9604 52.9573 64.0058C60.1168 64.0512 65.969 58.2209 65.9815 51.0301ZM66.9726 69.5418C67.018 69.5982 67.0728 69.6812 67.1432 69.75C70.2243 72.8327 73.3055 75.9154 76.3881 78.9965C76.5024 79.1108 76.6277 79.2141 76.7529 79.3143C78.1025 80.393 80.1002 80.1942 81.2102 78.8713C82.35 77.5139 82.2404 75.6978 80.8987 74.3467C77.8833 71.3125 74.8523 68.2925 71.826 65.2693C71.7179 65.1612 71.5927 65.072 71.5113 65.0047C69.9832 66.5343 68.4865 68.0294 66.9726 69.5418ZM68.0513 50.8673C67.9793 59.8178 60.7681 65.6262 53.8027 66.0161C47.6013 66.3621 39.6089 62.1506 38.1247 53.1875C37.5031 53.2924 36.88 53.3957 36.1692 53.5163C37.4123 59.8476 40.8019 64.4473 46.7668 66.7864C52.9338 69.2052 58.775 68.2345 63.8946 64.0137C68.0685 60.5724 70.0177 56.0087 69.9817 50.54C69.2662 50.659 68.654 50.7639 68.0513 50.8673ZM69.7296 48.5533C68.5945 39.3992 59.7849 33.4185 52.5314 34.1466C52.6379 34.7587 52.7428 35.3693 52.8477 35.9705C60.336 35.9548 66.7283 41.53 67.8603 48.8507C68.4677 48.7537 69.0767 48.6566 69.7296 48.5533ZM36.0941 51.4841C36.4698 51.4215 36.844 51.3041 37.2166 51.3072C37.8914 51.3134 37.9885 50.9784 38.0354 50.3772C38.5349 43.9019 41.8195 39.4289 47.8283 36.985C48.7692 36.6014 49.79 36.4104 50.8296 36.1161C50.7294 35.518 50.6245 34.8965 50.5212 34.2781C41.641 35.4304 35.5195 43.7594 36.0941 51.4841ZM68.5992 62.1224C67.0775 63.641 65.5745 65.1378 64.0981 66.611C64.524 67.0509 65.0109 67.5535 65.4712 68.0279C66.9867 66.5124 68.4912 65.0078 70.0052 63.4923C69.5292 63.0305 69.0282 62.542 68.5992 62.1224Z" fill="#00C9F7"/>
<path d="M29.9913 82.026C29.0347 81.7301 28.0311 81.5406 27.1325 81.121C23.4298 79.3942 21.4102 75.3721 22.1523 71.3563C22.8866 67.3813 26.2636 64.3753 30.3451 64.0653C35.0842 63.7052 39.3771 67.1981 39.9157 71.8558C40.4855 76.7812 37.1852 81.1821 32.3804 81.9117C32.2677 81.9289 32.1596 81.9868 32.0501 82.026C31.3628 82.026 30.677 82.026 29.9913 82.026ZM25.9583 77.7472C26.428 75.5083 26.7818 75.1342 28.1439 73.8613C26.287 71.6742 26.9869 69.3336 28.2394 68.1437C29.6875 66.7691 31.9232 66.6689 33.445 67.8776C34.2372 68.5069 34.7539 69.3164 34.9214 70.3011C35.15 71.6476 34.7679 72.8468 33.8928 73.7768C34.4126 74.4234 34.9762 74.9666 35.3394 75.6211C35.6995 76.2692 35.856 77.0301 36.0956 77.7252C38.3094 75.6759 38.9747 71.1935 35.9844 68.1171C33.1507 65.2004 28.4178 65.3522 25.714 68.4459C22.9523 71.6115 23.9183 76.0469 25.9583 77.7472ZM30.9792 80.1332C30.9901 80.1034 31.0011 80.0737 31.0121 80.0423C31.4896 79.9813 31.9733 79.9437 32.4462 79.8529C33.9711 79.5586 34.0587 79.4396 33.9851 77.9147C33.9836 77.8943 33.9836 77.874 33.982 77.8536C33.863 75.8825 31.9154 74.5658 30.0476 75.1968C28.5024 75.7181 27.5207 77.6391 28.0296 79.186C28.0734 79.3206 28.2691 79.4568 28.4194 79.4975C29.2695 79.7261 30.1259 79.9249 30.9792 80.1332ZM31.0277 69.0424C29.9052 69.0299 29.0206 69.8956 29.0143 71.0103C29.0081 72.1141 29.9067 73.0269 31.0011 73.0253C32.0594 73.0237 32.9722 72.1313 33.0004 71.0667C33.0301 69.9755 32.133 69.0533 31.0277 69.0424Z" fill="#00C9F7"/>
<path d="M83.997 30.0682C83.7214 30.9668 83.5398 31.9078 83.1531 32.7548C81.4262 36.5357 77.4324 38.6039 73.4119 37.8633C69.3194 37.1103 66.3588 33.8069 66.0379 29.6298C65.6668 24.803 69.2474 20.5837 74.1681 20.0483C78.7741 19.5473 83.2095 23.0042 83.8796 27.6133C83.8999 27.748 83.9563 27.8763 83.997 28.0094C83.997 28.6952 83.997 29.3809 83.997 30.0682ZM79.9953 33.8069C81.9038 32.1849 82.519 28.9128 81.4544 26.3248C80.2802 23.4723 77.4418 21.8018 74.2166 22.0664C71.3797 22.2996 68.8622 24.5604 68.1702 27.4646C67.5941 29.8881 68.593 32.7422 70.0145 33.7489C70.1273 32.1144 70.8928 30.8447 72.161 29.8772C70.2603 27.5977 71.0369 25.2884 72.2158 24.1549C73.653 22.7725 75.8668 22.6535 77.4152 23.8512C78.198 24.4571 78.7052 25.2399 78.8978 26.2011C79.178 27.5961 78.7647 28.8173 77.8019 29.8725C79.1452 30.8541 79.845 32.1442 79.9953 33.8069ZM74.9368 36.1318C74.9493 36.102 74.9603 36.0739 74.9728 36.0441C75.4707 35.9831 75.9764 35.9517 76.468 35.8547C77.9569 35.5619 78.0821 35.3834 77.9725 33.8773C77.9678 33.8163 77.9631 33.7568 77.9569 33.6973C77.7909 31.8921 75.9998 30.6537 74.2464 31.1312C72.5759 31.5853 71.4471 33.6456 72.0263 35.2159C72.0702 35.3349 72.2455 35.4492 72.3802 35.4868C73.2287 35.7138 74.0835 35.9189 74.9368 36.1318ZM76.9815 27.0434C76.994 25.935 76.1079 25.0238 75.0088 25.0144C73.9301 25.005 72.9939 25.9381 72.9954 27.0199C72.9986 28.0971 73.8738 28.9817 74.954 28.9989C76.0797 29.0145 76.969 28.1566 76.9815 27.0434Z" fill="#00C9F7"/>
<path d="M31.009 38.0246C26.0773 38.0418 21.9989 33.9603 22.0005 29.0114C22.0036 24.0797 26.0225 20.042 30.9573 20.017C35.9047 19.9919 39.9627 24.0155 40.0034 28.9895C40.0457 33.9039 35.9594 38.0074 31.009 38.0246ZM28.158 29.8975C26.6175 27.4927 26.6926 25.4559 28.3616 24.0296C29.9553 22.6675 32.1362 22.6926 33.7034 24.0922C35.3191 25.5342 35.377 27.571 33.8396 29.8959C35.1422 30.8463 35.8514 32.1629 36.008 33.8225C38.7212 31.2612 38.6038 26.6082 35.8405 23.9748C32.8987 21.1724 28.313 21.4041 25.6656 24.4977C23.004 27.6055 23.8792 31.9688 25.9975 33.788C26.1478 32.1583 26.8476 30.8478 28.158 29.8975ZM33.9899 34.4033C33.9899 34.2624 33.9962 34.1215 33.9883 33.9806C33.9242 32.6906 33.3151 31.7481 32.1206 31.2565C30.9746 30.7852 29.9037 31.0028 28.9737 31.8216C27.942 32.7313 27.9529 33.9524 28.0375 35.1736C28.0453 35.2989 28.2989 35.4492 28.4665 35.5149C29.96 36.113 31.4818 36.1662 33.0208 35.7044C33.9962 35.4132 33.9946 35.41 33.9899 34.4033ZM29.0144 26.9839C29.0019 28.1049 29.8677 28.991 30.9824 28.9989C32.0955 29.0051 32.9989 28.1205 33.0004 27.0199C33.002 25.96 32.1159 25.052 31.0466 25.0175C29.9616 24.9799 29.0269 25.8849 29.0144 26.9839Z" fill="#00C9F7"/>
<path d="M48.0194 49.0731C48.0194 50.7232 48.0194 52.3467 48.0194 54C48.6832 54 49.2813 54 49.9639 54C49.9639 49.6962 49.9639 45.3939 49.9639 41.0493C52.0132 41.0493 53.9781 41.0493 56.0024 41.0493C56.0024 45.3751 56.0024 49.6649 56.0024 53.9922C56.6756 53.9922 57.2893 53.9922 57.9688 53.9922C57.9688 51.0175 57.9688 48.0601 57.9688 45.0573C59.9978 45.0573 61.9642 45.0573 63.9667 45.0573C63.9667 48.6973 63.9667 52.317 63.9667 55.9727C56.649 55.9727 49.3548 55.9727 42.0247 55.9727C42.0247 53.6775 42.0247 51.4042 42.0247 49.0715C43.9973 49.0731 45.9747 49.0731 48.0194 49.0731ZM52.0446 43.0423C52.0446 46.7231 52.0446 50.3443 52.0446 53.9969C52.6927 53.9969 53.3064 53.9969 53.9405 53.9969C53.9405 50.3287 53.9405 46.6933 53.9405 43.0423C53.2955 43.0423 52.6958 43.0423 52.0446 43.0423ZM61.9658 47.0566C61.2863 47.0566 60.671 47.0566 60.0605 47.0566C60.0605 49.394 60.0605 51.6954 60.0605 53.9781C60.7258 53.9781 61.338 53.9781 61.9658 53.9781C61.9658 51.6532 61.9658 49.3799 61.9658 47.0566ZM45.9653 51.0692C45.3234 51.0692 44.6799 51.0692 44.0584 51.0692C44.0584 52.0743 44.0584 53.0309 44.0584 53.9891C44.7191 53.9891 45.3312 53.9891 45.9653 53.9891C45.9653 53.0043 45.9653 52.0602 45.9653 51.0692Z" fill="#00C9F7"/>
</svg>
