<svg width="42" height="42" viewBox="0 0 42 42" fill="none" xmlns="http://www.w3.org/2000/svg">
<path d="M13.6408 12.898C12.9141 11.2604 13.0599 9.57597 13.0524 7.90828C13.0492 7.17352 13.046 6.43876 13.0535 5.704C13.062 4.81561 13.5111 4.25897 14.3492 4.12315C16.6802 3.74575 18.4753 2.40982 20.0658 0.702061C20.1708 0.589621 20.2662 0.469387 20.3712 0.356946C20.8106 -0.117308 21.2072 -0.125101 21.6401 0.370306C22.5157 1.37114 23.4781 2.25953 24.5981 2.95867C25.5369 3.54425 26.539 3.94169 27.6236 4.11981C28.4949 4.26231 28.9536 4.81116 28.9461 5.72293C28.9311 7.50305 28.9257 9.2854 28.8475 11.0633C28.8207 11.6723 28.5839 12.2712 28.4317 12.9214C29.572 13.1796 30.7273 13.4401 31.8816 13.7018C33.7764 14.1315 35.6744 14.5467 37.5606 15.0087C37.8468 15.0789 38.1737 15.3093 38.3269 15.5665C39.4608 17.4646 40.5625 19.3828 41.6589 21.3043C42.3909 22.5879 41.9054 24.0686 40.5786 24.6363C39.8434 24.9503 39.1007 25.2442 38.343 25.5537C38.343 27.1301 38.343 28.692 38.343 30.255C38.343 31.2714 38.3451 32.2879 38.3419 33.3032C38.3387 34.5122 37.8832 35.2213 36.7858 35.67C32.9544 37.2341 29.1197 38.7905 25.2861 40.3491C24.0269 40.8612 22.7644 41.3644 21.5105 41.8887C21.1675 42.0324 20.8642 42.039 20.5148 41.8965C15.4252 39.8169 10.3313 37.7496 5.23949 35.6778C4.12275 35.2236 3.66084 34.5233 3.65977 33.2831C3.65762 30.844 3.65334 28.4059 3.6662 25.9667C3.66727 25.6572 3.59975 25.498 3.29752 25.3923C2.67163 25.174 2.06182 24.9046 1.44772 24.6497C0.116637 24.0964 -0.394577 22.6035 0.329911 21.331C1.43272 19.395 2.54303 17.4646 3.68227 15.552C3.82803 15.306 4.14097 15.0811 4.41319 15.0165C7.28649 14.3408 10.1673 13.6984 13.046 13.0472C13.2206 13.0037 13.3943 12.9581 13.6408 12.898ZM14.4971 5.61717C14.4971 6.94641 14.5271 8.24338 14.4896 9.53812C14.4392 11.2937 15.0019 12.8189 16.0093 14.1871C17.3007 15.9417 18.9522 17.2598 20.7913 18.3341C20.9178 18.4076 21.1814 18.3764 21.3047 18.2851C22.4504 17.4301 23.6293 16.6107 24.6988 15.6611C25.7566 14.7215 26.5583 13.5459 27.0909 12.1833C27.5528 10.9987 27.5068 9.76745 27.5036 8.53394C27.5014 7.56873 27.5036 6.60353 27.5036 5.61828C24.8596 5.22641 22.819 3.76913 21.085 1.95895C20.0475 2.76496 19.083 3.58767 18.0477 4.29905C16.9878 5.02824 15.7821 5.43459 14.4971 5.61717ZM21.7505 25.2798C21.7505 30.3285 21.7505 35.2258 21.7505 40.1543C21.8395 40.1242 21.8952 40.1086 21.9488 40.0875C26.719 38.1504 31.4882 36.2088 36.2606 34.2795C36.7193 34.0936 36.9058 33.793 36.9026 33.2842C36.8887 31.0332 36.8972 28.7833 36.8951 26.5322C36.8951 26.4176 36.8769 26.304 36.864 26.1504C36.1599 26.4343 35.504 26.6981 34.8481 26.9642C32.1763 28.0485 29.5055 29.1384 26.8305 30.2161C25.6838 30.6781 24.6763 30.3118 24.0344 29.2286C23.7825 28.8033 23.5382 28.3725 23.2895 27.9439C22.7997 27.0933 22.3067 26.2428 21.7505 25.2798ZM20.2673 25.2898C20.1194 25.5236 20.0368 25.6472 19.9629 25.7752C19.3273 26.8718 18.694 27.9706 18.0584 29.0683C17.3082 30.3641 16.3533 30.7026 14.9997 30.1526C12.5658 29.1629 10.1319 28.1743 7.69803 27.1857C6.84923 26.8406 6.00042 26.4977 5.13875 26.1482C5.12053 26.2517 5.10553 26.2973 5.10553 26.343C5.10338 28.7031 5.10553 31.0622 5.10124 33.4223C5.10017 33.8854 5.34559 34.1159 5.73677 34.2739C10.1866 36.0752 14.6332 37.8854 19.0819 39.6922C19.4667 39.8492 19.8525 40.0029 20.2673 40.1698C20.2673 35.2147 20.2673 30.3241 20.2673 25.2898ZM19.9414 22.8941C14.8282 20.8156 9.76968 18.7594 4.69827 16.6987C4.60182 16.8579 4.52036 16.987 4.44427 17.1195C3.53009 18.6992 2.61591 20.2779 1.70279 21.8587C1.2591 22.6269 1.38556 23.0121 2.17757 23.3327C4.16455 24.1376 6.1526 24.9436 8.13851 25.7507C10.6281 26.7627 13.1178 27.778 15.6085 28.79C16.1411 29.0059 16.4412 28.9369 16.7005 28.4927C17.7766 26.6503 18.8397 24.8 19.9414 22.8941ZM22.0602 22.8974C23.1684 24.8145 24.2455 26.6892 25.3376 28.5528C25.5841 28.9736 25.9646 28.9659 26.3729 28.8C30.8763 26.9675 35.3807 25.1406 39.8841 23.3082C40.5958 23.0188 40.7254 22.6068 40.33 21.9199C39.6205 20.6864 38.9067 19.4563 38.1951 18.225C37.9025 17.7185 37.6099 17.213 37.3131 16.6987C32.217 18.7694 27.1563 20.8256 22.0602 22.8974ZM35.0421 16.0085C34.9478 15.9517 34.9231 15.9294 34.8963 15.9227C32.591 15.4006 30.2858 14.8841 27.9826 14.3519C27.7211 14.2918 27.615 14.4042 27.4821 14.6035C25.9206 16.947 23.8115 18.6258 21.4097 19.9339C21.1954 20.0508 20.8224 20.0541 20.6091 19.9383C18.2192 18.6425 16.1132 16.9815 14.5592 14.6536C14.3738 14.3764 14.2109 14.3029 13.9033 14.3753C12.5262 14.7004 11.1436 15.001 9.76325 15.3138C8.84264 15.5231 7.92417 15.7379 6.9146 15.9717C7.08501 16.0519 7.16431 16.0931 7.24576 16.1265C11.6527 17.9155 16.0607 19.7001 20.4634 21.5002C20.8385 21.6539 21.1493 21.6672 21.5308 21.5092C24.1394 20.4282 26.7587 19.375 29.3748 18.3118C31.2471 17.5503 33.1194 16.79 35.0421 16.0085Z" fill="#00BAEF"/>
<path d="M20.0411 11.6646C20.8663 10.5235 21.6229 9.47702 22.3806 8.43166C22.5339 8.21902 22.6796 7.99971 22.8479 7.80043C23.1244 7.47201 23.5017 7.42192 23.8157 7.65125C24.1404 7.88838 24.2326 8.3181 23.9904 8.68437C23.6324 9.22431 23.2423 9.74087 22.864 10.2663C22.1963 11.1915 21.5308 12.1177 20.8577 13.0384C20.4215 13.6351 20.0185 13.6652 19.5116 13.1453C18.9543 12.5753 18.3992 12.003 17.8483 11.4264C17.4689 11.0289 17.4282 10.597 17.7261 10.2719C18.0401 9.93012 18.4699 9.95907 18.8686 10.3743C19.2501 10.7718 19.6124 11.1892 20.0411 11.6646Z" fill="#00BAEF"/>
</svg>
