<svg width="106" height="106" viewBox="0 0 106 106" fill="none" xmlns="http://www.w3.org/2000/svg">
<path d="M105.47 52.9676C105.47 81.9279 81.9789 105.405 53 105.405C24.0211 105.405 0.529676 81.9279 0.529676 52.9676C0.529676 24.0072 24.0211 0.529676 53 0.529676C81.9789 0.529676 105.47 24.0072 105.47 52.9676Z" fill="#EBFAFF" stroke="#00BAEF" stroke-width="1.05935"/>
<path d="M62.2274 26.6516C60.5788 26.6516 58.9284 26.6554 57.2799 26.6498C56.5879 26.6479 56.1909 26.334 56.1909 25.816C56.1909 25.3056 56.6068 24.954 57.2704 24.954C60.592 24.9483 63.9156 24.9483 67.2372 24.954C67.9008 24.9559 68.3375 25.3245 68.2827 25.8387C68.2165 26.438 67.829 26.6592 67.2467 26.6554C65.5736 26.6441 63.9005 26.6516 62.2274 26.6516Z" fill="#00BAEF"/>
<path d="M82.9891 63.5225C82.9739 61.9515 81.9795 60.9798 80.399 60.9684C79.0076 60.959 77.6181 60.9817 76.2267 60.959C75.5763 60.9476 74.754 61.2444 74.3229 60.8248C73.9562 60.4674 74.2454 59.6564 74.2133 59.0477C74.2095 58.9777 74.2114 58.9059 74.2057 58.8359C74.0507 56.8679 72.6668 55.4878 70.695 55.4708C66.6644 55.4368 62.6338 55.4311 58.6032 55.4746C56.5766 55.4973 55.1814 57.0021 55.1568 59.025C55.1511 59.4503 55.1663 59.8757 55.1511 60.3011C55.1398 60.596 55.3005 60.976 54.7258 60.9779C54.1492 60.9798 54.3023 60.5979 54.3004 60.3049C54.2834 57.9209 54.2777 55.5351 54.2683 53.1511C54.2796 51.4043 54.3212 49.6574 54.2853 47.9106C54.272 47.2886 54.4346 47.1241 55.0604 47.1279C59.7281 47.1563 64.3939 47.1374 69.0616 47.1506C69.6155 47.1525 70.0484 47.0069 70.4436 46.5967C71.6232 45.3754 72.8389 44.1882 74.0337 42.9801C74.6462 42.3619 74.6443 41.9895 74.0261 41.3656C72.8483 40.1746 71.6459 39.0081 70.487 37.7982C70.0919 37.3861 69.6722 37.2405 69.1145 37.2424C64.4241 37.2594 59.7338 37.2424 55.0434 37.2651C54.48 37.267 54.2683 37.1611 54.2834 36.5429C54.3288 34.8433 54.3212 33.1419 54.2853 31.4423C54.2739 30.8921 54.4157 30.7352 54.9791 30.7371C59.7167 30.7617 64.4544 30.7466 69.192 30.7579C69.6722 30.7598 70.0466 30.6331 70.3887 30.2853C71.593 29.0545 72.8199 27.8446 74.0318 26.6214C74.6386 26.007 74.6386 25.6195 74.0261 24.9994C72.8483 23.8084 71.6497 22.6381 70.4851 21.4339C70.0768 21.0104 69.6344 20.8421 69.0465 20.844C64.5678 20.8629 60.0892 20.8535 55.6105 20.8535C54.3306 20.8535 54.3307 20.8535 54.2947 19.5849C54.2531 18.0536 53.2171 17.0233 51.6934 17.0044C51.1754 16.9968 50.6555 17.0006 50.1375 17.0044C48.3906 17.0119 47.3943 18.0196 47.3924 19.7891C47.3887 22.6476 47.3754 25.5041 47.4038 28.3626C47.4094 28.9128 47.2714 29.0678 46.71 29.064C42.0196 29.0394 37.3292 29.0602 32.6388 29.0394C32.0206 29.0375 31.5726 29.2247 31.1491 29.6671C30.0223 30.8411 28.854 31.9773 27.7064 33.1305C27.0202 33.8206 27.0164 34.1703 27.6894 34.849C28.8351 36.0022 30.0053 37.1327 31.1245 38.3105C31.5877 38.7983 32.0868 38.9722 32.7485 38.9684C37.3916 38.9476 42.0347 38.9684 46.6797 38.942C47.2847 38.9382 47.4132 39.1159 47.4038 39.6906C47.3754 41.5793 47.4076 43.4679 47.417 45.3565C47.4095 45.6155 47.3962 45.8745 47.3962 46.1354C47.3943 51.0243 47.3943 55.9132 47.3924 60.8021C47.3924 61.1027 47.4227 61.3825 47.1353 61.6301C46.5644 62.1198 46.3678 62.7833 46.3753 63.5339C46.3923 65.2807 46.398 67.0294 46.3716 68.7763C46.3583 69.6232 46.5304 70.37 47.1958 70.9409C47.3093 71.0373 47.3868 71.1376 47.3849 71.2964C47.3811 71.941 47.383 72.5857 47.383 73.3324C45.9556 72.6651 44.4659 72.6556 43.2352 71.6499C42.4034 70.9693 41.4033 70.2244 40.1536 70.2679C40.1026 70.2698 40.0421 70.1998 39.9986 70.1526C39.6394 69.7537 39.6829 68.4265 40.0837 68.0522C40.838 67.3471 41.5469 66.6097 42.099 65.7269C43.0329 64.2277 43.4318 62.5792 43.7759 60.8531C44.8818 55.3063 41.494 50.6481 36.0077 50.3721C31.9941 50.1698 28.8842 52.3817 27.7915 56.2194C27.4248 57.5069 27.3397 58.8265 27.4512 60.1498C27.7083 63.2163 28.8162 65.9008 31.1037 68.0276C31.5744 68.4662 31.7427 69.5344 31.4043 70.0713C31.34 70.1734 31.289 70.2679 31.1472 70.2717C29.8503 70.3114 28.8445 71.1111 27.8898 71.7954C27.2697 72.2397 26.6534 72.4874 25.9804 72.6897C24.313 73.1888 22.6398 73.6557 21.0991 74.5083C19.3976 75.4517 18.4637 76.8696 18.2368 78.7904C17.9249 81.4258 18.0175 84.0706 18.0005 86.7154C17.9929 87.9556 18.2009 88.1598 19.4222 88.1598C39.318 88.1598 59.212 88.1598 79.1078 88.1598C81.1099 88.1598 81.9795 87.2845 81.9795 85.2597C81.9814 80.8435 81.9814 76.4272 81.972 72.0091C81.9701 71.4778 82.0079 71.0241 82.4484 70.6158C82.8945 70.2017 82.9966 69.5873 82.9966 68.9805C82.9966 67.1599 83.008 65.3412 82.9891 63.5225ZM54.291 39.5072C54.2853 39.0762 54.4025 38.9458 54.843 38.9476C59.4861 38.9628 64.1273 38.959 68.7705 38.9533C69.0729 38.9533 69.2998 39.0252 69.5191 39.2501C70.3566 40.1141 71.2054 40.9667 72.0694 41.8042C72.336 42.0632 72.4097 42.2315 72.1016 42.5264C71.2149 43.3752 70.349 44.2449 69.5021 45.1297C69.2336 45.4094 68.9349 45.4132 68.6022 45.4132C66.3166 45.4113 64.0309 45.4113 61.7453 45.4113C59.4823 45.4113 57.2194 45.3943 54.9583 45.4246C54.4233 45.4321 54.2815 45.2752 54.2928 44.7497C54.3193 43.0028 54.3136 41.256 54.291 39.5072ZM54.2872 23.1391C54.2796 22.6665 54.429 22.5436 54.8865 22.5455C59.4804 22.5606 64.0763 22.5568 68.6703 22.5493C68.9935 22.5493 69.2525 22.6079 69.4926 22.8536C70.3453 23.7346 71.2092 24.6062 72.0902 25.4588C72.387 25.7442 72.3549 25.922 72.077 26.1923C71.213 27.0279 70.3585 27.8768 69.5285 28.7464C69.2658 29.0224 68.9822 29.0545 68.6438 29.0545C66.3581 29.047 64.0725 29.0508 61.7869 29.0508C59.5012 29.0508 57.2156 29.0375 54.9299 29.0621C54.4573 29.0678 54.2758 28.9733 54.2872 28.4515C54.3193 26.6819 54.3136 24.9105 54.2872 23.1391ZM47.3981 36.7074C47.4038 37.1422 47.279 37.2651 46.8423 37.2651C42.203 37.25 37.5617 37.2537 32.9224 37.2613C32.6142 37.2613 32.3949 37.1668 32.1813 36.9494C31.3419 36.0892 30.5025 35.2252 29.6253 34.4047C29.2623 34.0663 29.338 33.8773 29.6518 33.5786C30.4855 32.7808 31.3003 31.9603 32.1 31.1247C32.3685 30.8449 32.6483 30.7466 33.0283 30.7485C35.312 30.7636 37.5976 30.756 39.8833 30.756C42.1916 30.756 44.4999 30.7674 46.8083 30.7466C47.262 30.7428 47.4095 30.8562 47.4019 31.3288C47.3735 33.1192 47.3773 34.9133 47.3981 36.7074ZM56.8507 59.2632C56.8583 57.8207 57.52 57.1609 58.9813 57.1571C60.8889 57.1515 62.7964 57.1553 64.7039 57.1553C66.5869 57.1553 68.4718 57.1496 70.3547 57.1571C71.8369 57.1628 72.5042 57.8377 72.5194 59.3256C72.5231 59.6564 72.5231 59.9854 72.5194 60.3162C72.5156 60.6319 72.6195 60.9741 72.0694 60.9817C71.5457 60.9873 71.5798 60.6962 71.5873 60.3521C71.5968 59.9513 71.5949 59.5505 71.5873 59.1498C71.5741 58.3595 71.317 58.0967 70.5211 58.0948C67.5775 58.0892 64.634 58.093 61.6904 58.093C60.7244 58.093 59.7602 58.0854 58.7942 58.0948C58.0531 58.1024 57.7676 58.3803 57.7412 59.1119C57.7241 59.5827 57.7204 60.0572 57.7412 60.5279C57.7563 60.8645 57.6353 60.9798 57.2969 60.9779C56.9698 60.976 56.8242 60.8909 56.845 60.5393C56.8696 60.1139 56.8488 59.6885 56.8507 59.2632ZM69.9067 60.3559C69.8877 60.768 69.8556 60.9836 69.3433 60.9798C66.2164 60.9552 63.0875 60.959 59.9606 60.9779C59.5031 60.9798 59.418 60.8096 59.418 60.4013C59.418 59.9759 59.4861 59.7698 59.9871 59.7812C61.5619 59.8133 63.1386 59.7925 64.7134 59.7925C66.2428 59.7925 67.7704 59.8058 69.2979 59.7831C69.7403 59.7736 69.9293 59.8682 69.9067 60.3559ZM57.3725 62.6661C59.8207 62.6661 62.2708 62.6661 64.7191 62.6661C67.3563 62.6661 69.9936 62.6812 72.6309 62.6529C73.1943 62.6472 73.4136 62.7644 73.3947 63.3807C73.355 64.7287 73.389 64.7306 72.1034 65.0765C69.8121 65.6947 67.517 66.3016 65.2295 66.9349C64.8476 67.0408 64.5073 67.0313 64.1292 66.9274C61.6356 66.2449 59.1401 65.57 56.6352 64.9329C56.1304 64.8043 55.9697 64.6039 55.9811 64.084C56.0132 62.6661 55.9886 62.6661 57.3725 62.6661ZM49.0882 19.9971C49.0882 18.9062 49.2848 18.7058 50.3473 18.7039C50.7954 18.7039 51.2434 18.7021 51.6915 18.7058C52.2624 18.7096 52.5592 19.0121 52.5989 19.5717C52.6141 19.7834 52.6027 19.9971 52.6027 20.2088C52.6008 30.9054 52.5989 41.6019 52.5989 52.3004C52.5989 52.5821 52.6178 52.8657 52.6292 53.1473C52.6197 55.4821 52.58 57.8169 52.6216 60.1498C52.6348 60.8626 52.4137 61.0384 51.7539 60.9798C51.0998 60.9231 50.4343 60.9306 49.7783 60.9779C49.2281 61.0176 49.0712 60.8474 49.075 60.2841C49.0977 55.5672 49.0863 50.8504 49.0845 46.1354C49.0845 45.8764 49.0712 45.6174 49.0637 45.3584C49.0731 45.0748 49.0901 44.7931 49.0901 44.5096C49.0901 36.3387 49.0882 28.1679 49.0882 19.9971ZM40.3049 72.3135C40.7094 71.9637 40.9533 72.3134 41.2388 72.4496C41.4278 72.5403 41.7057 72.5743 41.7436 72.8957C41.0308 74.0754 40.3181 75.2664 39.5921 76.4518C39.5109 76.5841 39.3842 76.4858 39.2878 76.4216C38.6601 76.0037 38.04 75.5746 37.4048 75.17C37.1156 74.9848 37.2195 74.86 37.4162 74.6993C38.3841 73.9091 39.3615 73.1302 40.3049 72.3135ZM36.0814 73.5971C35.9567 73.6992 35.8224 73.7881 35.675 73.8939C35.5445 73.7994 35.4273 73.7238 35.3215 73.6368C34.5199 72.9808 33.7202 72.3229 32.9243 71.6631C32.8052 71.5648 32.584 71.4703 32.688 71.2831C32.9886 70.7424 33.1965 70.1809 33.2873 69.5646C33.3156 69.3756 33.5179 69.5041 33.637 69.5476C34.9925 70.0448 36.3518 70.0581 37.6997 69.5401C37.9852 69.4304 38.0703 69.4966 38.1062 69.7764C38.1364 70.007 38.1516 70.2811 38.282 70.4532C38.9097 71.2869 38.4654 71.7463 37.7791 72.2151C37.1798 72.6273 36.6467 73.1339 36.0814 73.5971ZM31.5347 66.0464C29.941 64.1502 29.164 61.9326 29.1035 59.4598C29.0752 57.7186 29.4022 56.0795 30.3702 54.6068C31.013 53.6294 31.8769 52.9224 32.9753 52.5291C34.7448 51.8939 36.5446 51.8694 38.3047 52.5046C40.5166 53.3024 41.6396 55.0549 42.0328 57.2781C42.6208 60.6092 41.9156 63.6511 39.6394 66.2052C37.1912 68.9483 33.9036 68.867 31.5347 66.0464ZM30.1963 72.391C30.3702 72.3305 30.5271 72.217 30.718 72.1149C30.8371 72.1925 30.96 72.2567 31.064 72.3418C31.9941 73.1037 32.911 73.8807 33.8506 74.6312C34.1493 74.8694 34.2023 75.0188 33.845 75.2419C33.2854 75.5897 32.7296 75.9489 32.2002 76.3422C31.875 76.5823 31.737 76.4821 31.5593 76.1739C31.0186 75.2343 30.4912 74.2815 29.8786 73.391C29.5005 72.8333 29.6348 72.5876 30.1963 72.391ZM50.9655 86.4602C45.8535 86.4432 40.7397 86.4489 35.6258 86.4489C30.5592 86.4489 25.4945 86.4394 20.4279 86.4621C19.8494 86.464 19.6717 86.3298 19.685 85.7305C19.719 84.1992 19.6434 82.6659 19.6717 81.1346C19.6906 80.0797 19.8797 79.038 20.1481 78.0172C20.3769 77.1456 20.9781 76.5615 21.7324 76.1096C23.3923 75.1171 25.2601 74.6936 27.0807 74.1473C28.1772 73.8183 28.181 73.8297 28.7897 74.8449C29.4193 75.896 30.0431 76.9509 30.6802 77.9982C31.1321 78.7431 31.5121 78.8301 32.2456 78.3499C33.2513 77.692 34.2552 77.0322 35.2383 76.3422C35.5597 76.1153 35.7809 76.1077 36.106 76.3365C37.0872 77.0284 38.093 77.6863 39.0968 78.3461C39.8341 78.8301 40.2085 78.7507 40.6622 78.002C41.4222 76.7543 42.1633 75.4952 42.9157 74.2418C43.0461 74.0244 43.1255 73.8051 43.498 73.9204C45.2713 74.4687 47.0729 74.9167 48.7876 75.654C50.5742 76.4234 51.3909 77.7506 51.5081 79.66C51.6348 81.7131 51.5875 83.7662 51.6423 85.8174C51.6593 86.3846 51.4646 86.4621 50.9655 86.4602ZM80.2497 85.3864C80.2497 86.3147 80.1098 86.4489 79.1778 86.4489C70.7876 86.4508 62.3975 86.4432 54.0093 86.464C53.444 86.4659 53.3173 86.3052 53.3192 85.7607C53.3249 83.6604 53.3608 81.56 53.2058 79.4596C53.0262 77.036 51.994 75.2249 49.7216 74.2418C49.2092 74.0206 49.0088 73.737 49.0712 73.185C49.1242 72.7199 49.0826 72.2454 49.0826 71.6934C53.2512 72.8107 57.3158 73.9015 61.3823 74.9829C61.7226 75.0736 61.8303 75.2475 61.8058 75.5822C61.7793 75.9584 61.7944 76.3384 61.802 76.7146C61.8228 77.8205 62.4618 78.486 63.5488 78.5106C64.3032 78.5276 65.0575 78.5295 65.8118 78.5106C66.8081 78.486 67.4376 77.8962 67.553 76.9131C67.5643 76.8205 67.5643 76.724 67.5662 76.6295C67.6172 75.0755 67.6191 75.0812 69.0956 74.6861C72.595 73.7484 76.0943 72.8126 79.588 71.8578C80.0796 71.7236 80.2724 71.7331 80.2686 72.3494C80.2421 76.6957 80.2554 81.042 80.2497 85.3864ZM63.4997 73.5309C63.4978 73.2549 63.6131 73.1434 63.8797 73.1661C63.9024 73.168 63.9269 73.168 63.9496 73.1661C65.8647 73.0413 65.8647 73.0413 65.8647 74.9791C65.8647 75.0018 65.8647 75.0263 65.8647 75.049C65.8647 77.0246 65.8345 77.0416 63.8475 76.8223C63.564 76.7902 63.4959 76.69 63.4978 76.4329C63.5091 75.465 63.5091 74.497 63.4997 73.5309ZM80.469 69.8822C76.376 70.9617 72.2868 72.0601 68.2014 73.168C67.7968 73.2776 67.5813 73.3287 67.483 72.7955C67.3299 71.9713 66.7552 71.5175 65.878 71.4759C65.0783 71.4381 64.2748 71.4381 63.4751 71.4759C62.5884 71.5157 61.9759 72.011 61.8417 72.8617C61.7661 73.3476 61.5827 73.289 61.2405 73.1963C58.0852 72.338 54.9281 71.493 51.7709 70.6441C50.7935 70.3813 49.8199 70.111 48.8368 69.8709C48.2942 69.7367 48.0503 69.4455 48.0711 68.8708C48.1014 67.9974 48.0787 67.124 48.0787 66.2506C48.0768 65.3771 48.0957 64.5018 48.0711 63.6303C48.0522 62.9781 48.3188 62.6642 48.9805 62.6661C50.5836 62.6756 52.1849 62.6812 53.7881 62.6604C54.1945 62.6548 54.3269 62.7909 54.3061 63.1898C54.2777 63.7078 54.2891 64.2296 54.3042 64.7476C54.3269 65.5643 54.6861 66.1314 55.4517 66.3432C58.4198 67.1675 61.3993 67.952 64.3731 68.7555C64.6869 68.8406 64.9818 68.7649 65.2768 68.6874C68.0483 67.9463 70.8198 67.2053 73.5894 66.4547C74.6348 66.173 75.0489 65.6097 75.081 64.5113C75.098 63.9252 74.8277 63.1614 75.1888 62.8004C75.5801 62.409 76.3514 62.6831 76.9564 62.6718C78.0869 62.651 79.2194 62.6756 80.3499 62.6623C81.0002 62.6548 81.3027 62.9554 81.2989 63.6057C81.2914 65.3526 81.2876 67.1013 81.2989 68.8481C81.3027 69.438 81.0437 69.731 80.469 69.8822Z" fill="#00BAEF"/>
<path d="M44.3242 33.1512C42.6983 33.1475 41.0725 33.1493 39.4466 33.1493C37.7962 33.1493 36.1477 33.1569 34.4972 33.1456C33.9036 33.1418 33.4612 33.3214 33.4007 33.9755C33.3516 34.5181 33.7883 34.8489 34.5199 34.8508C37.7962 34.8546 41.0706 34.8546 44.3468 34.8508C45.0709 34.8508 45.4925 34.52 45.4849 33.9831C45.4774 33.4405 45.086 33.1531 44.3242 33.1512Z" fill="#00BAEF"/>
<path d="M57.2761 43.054C60.575 43.054 63.8759 43.0578 67.1748 43.0502C67.88 43.0484 68.3451 42.6684 68.2846 42.1447C68.2089 41.4943 67.759 41.3355 67.1673 41.3412C65.5168 41.3582 63.8683 41.3469 62.2179 41.3469C60.5675 41.3469 58.9189 41.3431 57.2685 41.3488C56.5785 41.3507 56.1512 41.6721 56.1947 42.1863C56.2495 42.8272 56.6843 43.054 57.2761 43.054Z" fill="#00BAEF"/>
</svg>
