<svg width="42" height="42" viewBox="0 0 42 42" fill="none" xmlns="http://www.w3.org/2000/svg">
<path d="M42 40.7384C41.6593 41.6875 40.99 42.0011 40.0469 42C27.3401 41.984 14.6334 41.992 1.92662 41.9771C1.50927 41.9771 1.06344 41.8546 0.681139 41.6714C0.281314 41.4803 0.0458003 41.0441 0.0403233 40.5861C0.0227967 39.186 -0.0659309 37.7687 0.093999 36.3869C0.393046 33.8042 2.29577 32.0229 4.77578 31.8019C4.81521 31.7985 4.85355 31.7848 4.95214 31.763C4.95214 31.5924 4.95214 31.4116 4.95214 31.2318C4.95214 24.0779 4.95214 16.925 4.95214 9.77104C4.95214 8.10419 5.55133 7.23412 7.05314 6.71094C7.71257 6.48083 8.36653 6.23012 9.03254 6.02061C9.33926 5.92445 9.46085 5.79165 9.45208 5.43103C9.4236 4.31598 9.43784 3.19978 9.44332 2.08358C9.4488 0.839162 10.2441 0.00458934 11.4183 1.00662e-05C12.5006 -0.00342439 13.3375 0.872362 13.3583 2.05153C13.3726 2.83573 13.3605 3.61993 13.3605 4.45565C13.5434 4.40527 13.6847 4.37665 13.8206 4.32857C17.0257 3.19978 20.2331 2.07671 23.4328 0.930748C23.8677 0.775052 24.1755 0.847176 24.4986 1.17803C26.2973 3.01661 28.1047 4.84718 29.9198 6.66744C30.5595 7.30854 30.8717 8.06068 30.8652 8.99486C30.8476 11.47 30.8597 13.9451 30.8586 16.4202C30.8586 16.5346 30.8958 16.6835 30.8411 16.7567C30.6943 16.9548 30.5354 17.2009 30.3295 17.2788C30.0491 17.3852 29.7906 17.2055 29.6909 16.8941C29.6361 16.7235 29.6317 16.5301 29.6306 16.3469C29.6273 13.9141 29.6175 11.4825 29.635 9.04981C29.6394 8.44763 29.4565 7.98169 29.0413 7.56727C27.626 6.15685 26.2272 4.72811 24.8218 3.30739C24.7451 3.23069 24.6651 3.15857 24.537 3.03722C24.537 8.39497 24.537 13.6898 24.537 19.0361C24.7002 19.0452 24.87 19.0624 25.0398 19.0624C28.3457 19.0635 31.6528 19.0624 34.9587 19.0635C36.4627 19.0635 37.235 19.8683 37.235 21.4345C37.2361 24.6961 37.235 27.9588 37.235 31.2204C37.235 31.3921 37.235 31.5627 37.235 31.7939C37.4902 31.7939 37.729 31.7894 37.9678 31.7951C39.9625 31.8409 41.5093 33.1849 41.9211 35.225C41.9343 35.2902 41.9704 35.3509 41.9967 35.4139C42 37.1895 42 38.9639 42 40.7384ZM23.2729 21.146C23.0823 21.2066 22.9541 21.2444 22.8281 21.2891C20.1389 22.2347 17.4508 23.1815 14.7615 24.1271C13.2871 24.6457 11.8149 25.1689 10.3383 25.6806C9.92311 25.8248 9.57587 25.6554 9.46742 25.2902C9.36336 24.9388 9.53862 24.6148 9.93297 24.4648C10.3043 24.324 10.6833 24.2026 11.058 24.0698C15.0135 22.6754 18.9668 21.2788 22.9256 19.8947C23.1907 19.8019 23.2871 19.6829 23.2794 19.3852C23.2586 18.5564 23.274 17.7252 23.2707 16.8953C23.2707 16.7762 23.251 16.6571 23.2378 16.5152C23.0626 16.5724 22.9333 16.6125 22.8051 16.6571C18.7324 18.0904 14.6608 19.5249 10.588 20.9582C10.4456 21.0086 10.3021 21.0635 10.1553 21.0853C9.80919 21.138 9.55725 20.98 9.46523 20.6297C9.37869 20.3022 9.50467 20.0389 9.80152 19.8844C9.89901 19.834 10.0064 19.8054 10.1093 19.7687C14.1821 18.3354 18.2537 16.9021 22.3264 15.4688C23.2729 15.1357 23.2718 15.1345 23.2718 14.0813C23.2718 13.3589 23.2718 12.6365 23.2718 11.8706C23.0647 11.9393 22.9234 11.9828 22.7843 12.0321C18.6601 13.4814 14.5359 14.9319 10.4106 16.3801C9.92968 16.5484 9.57915 16.4076 9.46523 16.0172C9.35679 15.644 9.55505 15.3257 10.0118 15.1643C10.7611 14.8975 11.5126 14.64 12.2629 14.3755C15.8044 13.1277 19.3447 11.8741 22.8906 10.64C23.1951 10.5335 23.2893 10.3938 23.2794 10.0687C23.2564 9.32571 23.2718 8.58043 23.2718 7.8363C23.2718 7.64626 23.2718 7.45736 23.2718 7.24443C23.1524 7.27648 23.1129 7.2845 23.0757 7.29709C19.52 8.54609 15.9632 9.79508 12.4075 11.0452C11.7097 11.2902 11.0141 11.5467 10.3131 11.7813C9.91544 11.9141 9.58573 11.7493 9.4718 11.4001C9.35788 11.0498 9.52986 10.7258 9.91654 10.5655C9.96693 10.5449 10.0195 10.5278 10.071 10.5095C14.066 9.10476 18.062 7.70121 22.057 6.29308C22.4557 6.15227 22.9979 6.09961 23.1995 5.80195C23.4021 5.50316 23.2663 4.95021 23.2696 4.50716C23.274 3.81111 23.2707 3.11621 23.2707 2.37437C23.0571 2.44076 22.9015 2.48312 22.7504 2.53578C17.6184 4.34117 12.4864 6.14655 7.35438 7.95307C6.48243 8.25988 6.1801 8.70178 6.1801 9.6703C6.179 19.858 6.1801 30.0458 6.1801 40.2335C6.1801 40.3721 6.19214 40.5106 6.19981 40.6697C7.28755 40.6697 8.34572 40.6697 9.43894 40.6697C9.43894 40.4877 9.43894 40.3331 9.43894 40.1786C9.43894 38.8048 9.43675 37.431 9.44004 36.0572C9.44223 35.075 9.81905 34.5541 10.7271 34.2873C12.5006 33.7665 14.2741 33.249 16.0475 32.7327C17.2087 32.395 17.9579 32.988 17.959 34.2484C17.9612 36.237 17.959 38.2267 17.9601 40.2152C17.9601 40.3652 17.9733 40.5152 17.9799 40.6571C19.7643 40.6571 21.5038 40.6571 23.2455 40.6571C23.2455 35.6875 23.2455 30.7579 23.2455 25.7882C23.1129 25.826 23.01 25.8512 22.9114 25.8855C21.1784 26.4934 19.4466 27.1036 17.7137 27.7127C16.8987 27.9989 16.087 28.2919 15.2676 28.5621C14.9248 28.6754 14.6246 28.498 14.514 28.166C14.4033 27.8351 14.5436 27.5123 14.8722 27.36C14.9719 27.3143 15.0792 27.2868 15.1822 27.2501C17.7673 26.3377 20.3536 25.4287 22.9344 24.506C23.0669 24.4591 23.2521 24.2885 23.2553 24.1706C23.2838 23.1883 23.2729 22.2015 23.2729 21.146ZM24.5282 36.6674C27.5439 36.6674 30.5398 36.6674 33.527 36.6674C33.5445 36.6125 33.5588 36.5861 33.5599 36.5598C33.5643 36.3595 33.561 36.1591 33.5708 35.9599C33.6475 34.3515 34.3299 33.1173 35.6762 32.3228C35.9457 32.1637 36.0158 31.9966 36.0147 31.6909C36.0037 28.2862 36.0081 24.8815 36.0081 21.4768C36.0081 20.5839 35.7901 20.3515 34.9488 20.3515C31.6298 20.3503 28.3096 20.3503 24.9905 20.3515C24.8437 20.3515 24.698 20.3641 24.5282 20.3721C24.5282 25.8191 24.5282 31.2318 24.5282 36.6674ZM24.5238 40.6766C27.557 40.6766 30.5398 40.6766 33.5434 40.6766C33.5434 39.7756 33.5434 38.8998 33.5434 38.0114C30.5256 38.0114 27.5318 38.0114 24.5238 38.0114C24.5238 38.9056 24.5238 39.771 24.5238 40.6766ZM34.8185 36.672C36.8143 36.672 38.7729 36.672 40.7469 36.672C40.8739 35.3738 40.5595 34.2713 39.4882 33.5661C38.4213 32.8632 37.2744 32.854 36.1856 33.5157C35.0551 34.2015 34.7046 35.3154 34.8185 36.672ZM34.8185 40.7006C35.5174 40.7006 36.1954 40.7006 36.8746 40.7006C38.0072 40.7006 39.1399 40.7121 40.2725 40.688C40.4369 40.6846 40.7337 40.5197 40.7381 40.4179C40.7764 39.6131 40.76 38.8048 40.76 38.016C38.7455 38.016 36.7869 38.016 34.8196 38.016C34.8185 38.9136 34.8185 39.779 34.8185 40.7006ZM14.3278 34.5747C14.3278 36.6171 14.3278 38.6297 14.3278 40.6709C15.1329 40.6709 15.9161 40.6709 16.6927 40.6709C16.6927 38.4076 16.6927 36.174 16.6927 33.8867C15.8712 34.1248 15.1011 34.3492 14.3278 34.5747ZM13.0549 34.9456C12.3067 35.1666 11.6089 35.3532 10.9276 35.5913C10.8082 35.6337 10.6877 35.889 10.6844 36.0481C10.6625 37.0899 10.6735 38.1317 10.6735 39.1734C10.6735 39.668 10.6735 40.1637 10.6735 40.6766C11.4917 40.6766 12.2629 40.6766 13.0549 40.6766C13.0549 38.7728 13.0549 36.8941 13.0549 34.9456ZM4.92476 40.7006C4.92476 39.7722 4.92476 38.8952 4.92476 38.0126C3.68913 38.0126 2.48199 38.0126 1.24747 38.0126C1.24747 38.5404 1.24527 39.0384 1.24747 39.5375C1.25404 40.7911 1.0952 40.7018 2.37793 40.7006C3.22358 40.7006 4.06815 40.7006 4.92476 40.7006ZM4.93352 33.1116C3.12171 33.0624 1.21351 34.9674 1.33181 36.6697C2.52581 36.6697 3.7209 36.6697 4.93352 36.6697C4.93352 35.4768 4.93352 34.3114 4.93352 33.1116ZM10.6746 5.3841C12.1205 5.11506 12.1315 5.10018 12.1315 3.65198C12.1315 3.58101 12.1315 3.50888 12.1315 3.4379C12.1304 2.96624 12.1468 2.49457 12.1227 2.02405C12.0997 1.56956 11.7842 1.27992 11.3734 1.28679C10.9725 1.29366 10.6833 1.55238 10.6778 1.96795C10.6669 3.09446 10.6746 4.22096 10.6746 5.3841Z" fill="#00BAEF"/>
<path d="M12.9563 29.0692C12.8654 29.1711 12.7328 29.4401 12.5302 29.5226C11.7842 29.8294 11.0196 30.087 10.2539 30.3365C9.89242 30.4544 9.5649 30.2575 9.46631 29.9221C9.36772 29.5844 9.52765 29.2547 9.89461 29.1184C10.6373 28.8425 11.3844 28.5769 12.1358 28.3285C12.551 28.1934 12.9355 28.4853 12.9563 29.0692Z" fill="#00BAEF"/>
<path d="M30.1968 30.5495C29.2406 30.5495 28.2854 30.5552 27.3291 30.5472C26.5524 30.5403 26.1712 30.1396 26.1625 29.336C26.1581 28.878 26.1548 28.4201 26.1646 27.9633C26.18 27.2742 26.5864 26.8391 27.2491 26.8357C29.2154 26.8265 31.1816 26.8277 33.1479 26.8345C33.7953 26.8368 34.2159 27.2364 34.2532 27.9015C34.2827 28.4281 34.2827 28.9605 34.2532 29.4871C34.2159 30.1465 33.8205 30.5335 33.1873 30.5426C32.1905 30.5575 31.1937 30.546 30.1968 30.546C30.1968 30.5483 30.1968 30.5483 30.1968 30.5495ZM33.0099 29.2329C33.0099 28.854 33.0099 28.5048 33.0099 28.1454C31.1312 28.1454 29.28 28.1454 27.4178 28.1454C27.4178 28.5209 27.4178 28.87 27.4178 29.2329C29.292 29.2329 31.1422 29.2329 33.0099 29.2329Z" fill="#00BAEF"/>
<path d="M30.1991 25.6542C29.2571 25.6542 28.315 25.66 27.3719 25.6531C26.5405 25.6474 26.1691 25.2558 26.1626 24.3972C26.1593 23.9542 26.1549 23.51 26.1647 23.0669C26.1801 22.3789 26.5865 21.9404 27.247 21.937C29.2133 21.9278 31.1795 21.929 33.1469 21.9359C33.7987 21.9381 34.2149 22.3331 34.2533 23.0017C34.2839 23.5283 34.2839 24.0606 34.2533 24.5873C34.2149 25.2616 33.8151 25.6394 33.148 25.6485C32.1654 25.6645 31.1817 25.6542 30.1991 25.6542ZM27.4102 24.3354C29.302 24.3354 31.1489 24.3354 33.0111 24.3354C33.0111 23.9542 33.0111 23.6062 33.0111 23.2558C31.1259 23.2558 29.268 23.2558 27.4102 23.2558C27.4102 23.629 27.4102 23.9679 27.4102 24.3354Z" fill="#00BAEF"/>
<path d="M28.1552 35.4997C27.8408 35.4997 27.5264 35.5089 27.2131 35.4986C26.5997 35.4779 26.1856 35.0567 26.1681 34.4201C26.1539 33.9061 26.155 33.3909 26.167 32.8769C26.1824 32.2461 26.5679 31.8168 27.1606 31.7985C27.843 31.7767 28.5254 31.7779 29.2079 31.7974C29.7895 31.8134 30.1828 32.2175 30.208 32.822C30.2299 33.3646 30.2299 33.9084 30.2091 34.451C30.1839 35.0715 29.7742 35.4768 29.1794 35.4986C28.8376 35.51 28.4959 35.4997 28.1552 35.4997ZM27.4081 34.1889C27.9536 34.1889 28.4521 34.1889 28.9636 34.1889C28.9636 33.8168 28.9636 33.4676 28.9636 33.1105C28.4301 33.1105 27.923 33.1105 27.4081 33.1105C27.4081 33.4837 27.4081 33.8214 27.4081 34.1889Z" fill="#00BAEF"/>
</svg>
