<svg width="106" height="106" viewBox="0 0 106 106" fill="none" xmlns="http://www.w3.org/2000/svg">
<circle cx="52.9676" cy="52.9676" r="52.4379" fill="#EBFAFF" stroke="#00BAEF" stroke-width="1.05935"/>
<path d="M85.3271 26.8372C85.3252 24.536 83.6031 22.8073 81.335 22.8091C68.2856 22.8147 55.2361 22.8333 42.1867 22.8463C41.8889 22.8314 41.5893 22.8054 41.2916 22.8054C36.6875 22.8054 32.0816 22.8091 27.4775 22.8129C24.8419 22.8147 23.2025 24.4728 23.2025 27.1384C23.2006 34.1927 23.2025 41.2469 23.2025 48.3012C23.2025 48.4946 23.1914 48.6879 23.2098 48.8793C23.2815 49.6173 23.7979 50.1025 24.5 50.108C25.204 50.1136 25.7352 49.6322 25.8087 48.9016C25.8344 48.6563 25.8179 48.4053 25.8179 48.1581C25.8179 41.1596 25.8179 34.1592 25.8197 27.1607C25.8197 25.9004 26.2461 25.4654 27.4794 25.4636C29.468 25.4617 31.4567 25.471 33.4472 25.4654C36.3622 25.458 39.2753 25.4413 42.1903 25.4301C55.0486 25.445 67.9088 25.458 80.7671 25.4729C82.3183 25.4747 82.6914 25.8521 82.6914 27.4209C82.6914 40.2878 82.6914 53.1565 82.6914 66.0234C82.6914 67.5421 82.2981 67.9436 80.8186 67.9454C73.7627 67.951 66.7068 67.9547 59.6509 67.964C58.6712 67.9659 58.0849 68.4492 58.0611 69.2429C58.0372 70.0571 58.6584 70.5961 59.6637 70.598C66.8832 70.6073 74.1027 70.6184 81.3222 70.611C83.5994 70.6073 85.3289 68.8916 85.3307 66.5959C85.3399 53.3424 85.3381 40.0889 85.3271 26.8372Z" fill="#00BAEF"/>
<path d="M70.471 60.5342C71.9138 60.5397 73.3584 60.5397 74.8012 60.5379C76.1502 60.536 76.5491 60.1364 76.5509 58.7683C76.5546 54.4985 76.5528 50.2306 76.5528 45.9609C76.5528 41.6651 76.5564 37.3675 76.5491 33.0717C76.5472 31.8802 76.0896 31.4248 74.9188 31.4192C73.4485 31.4118 71.9781 31.4173 70.5077 31.4211C69.1348 31.4248 68.69 31.8653 68.6882 33.2446C68.6845 36.7429 68.6863 40.2394 68.6863 43.7377C68.6863 48.7231 68.6845 53.7085 68.6882 58.6921C68.6882 60.1122 69.0943 60.5286 70.471 60.5342ZM72.1656 34.055C73.9116 34.1238 73.9135 34.0736 73.9135 35.8246C73.9135 39.2375 73.9135 42.6484 73.9135 46.0613C73.9135 49.7213 73.9024 53.3814 73.9245 57.0414C73.9282 57.6381 73.8436 57.9113 73.147 57.8965C71.3164 57.8574 71.3146 57.8946 71.3146 56.0525C71.3146 49.0354 71.322 42.0183 71.3017 35.0012C71.2999 34.3339 71.3734 34.0253 72.1656 34.055Z" fill="#00BAEF"/>
<path d="M65.6739 83.8346C62.996 81.7286 60.3346 79.5983 57.6567 77.4904C57.3241 77.2283 57.1495 77.0573 57.4086 76.5777C57.8038 75.8416 57.4123 74.9773 56.679 74.7728C56.0265 74.5888 55.5358 74.8787 55.0799 75.3453C52.6465 77.8324 50.1947 80.3028 47.7539 82.7825C47.5829 82.9572 47.401 83.1413 47.2925 83.355C47.0315 83.8699 47.0848 84.3774 47.48 84.8086C47.866 85.2287 48.3953 85.4648 48.8732 85.1339C49.4852 84.7101 49.6892 85.0652 50.009 85.4797C52.2679 88.4129 54.5322 91.3425 56.8205 94.2515C58.1934 95.9951 60.0295 96.8335 62.3674 96.9078C63.7716 96.8149 65.1519 96.4189 66.4017 95.3501C68.5117 93.547 69.517 90.7309 68.8407 88.043C68.372 86.1712 67.102 84.9592 65.6739 83.8346ZM63.6191 93.982C61.9612 94.5936 60.0718 94.1456 58.9672 92.7515C56.508 89.6509 54.0985 86.5076 51.6595 83.3904C51.4004 83.0595 51.3875 82.8494 51.6779 82.4907C52.6263 81.314 53.8522 80.4292 54.8465 79.3083C55.17 78.944 55.4034 79.0295 55.7324 79.2916C58.7834 81.7341 61.8528 84.1525 64.8946 86.6061C65.9569 87.4631 66.4495 88.6304 66.4219 90.0115C66.3852 91.8351 65.31 93.3593 63.6191 93.982Z" fill="#00BAEF"/>
<path d="M64.4333 35.8619C62.9078 35.8582 61.3823 35.8582 59.8568 35.8675C58.7209 35.875 58.2412 36.3229 58.2394 37.4512C58.2302 44.6152 58.2302 51.781 58.2394 58.945C58.2412 60.0659 58.7283 60.5157 59.866 60.5231C61.3639 60.5324 62.8637 60.5306 64.3616 60.5287C65.6647 60.5269 66.0727 60.1216 66.0746 58.8093C66.0782 55.2812 66.0764 51.755 66.0764 48.2269C66.0764 44.6728 66.0801 41.1169 66.0746 37.5628C66.0727 36.2746 65.6757 35.8657 64.4333 35.8619ZM62.724 57.9022C60.8382 57.8799 60.8382 57.9115 60.8382 56.0229C60.8382 50.4891 60.8493 44.9535 60.8235 39.4198C60.8199 38.7301 60.9375 38.4569 61.7021 38.481C63.4592 38.5405 63.461 38.4959 63.461 40.2432C63.461 42.8865 63.461 45.5298 63.461 48.173C63.461 51.1472 63.4463 54.1213 63.4739 57.0936C63.4775 57.6791 63.3709 57.9115 62.724 57.9022Z" fill="#00BAEF"/>
<path d="M51.8892 76.6133C54.8575 72.6837 56.1937 68.2355 55.5633 63.291C54.8079 57.3576 51.6816 53.0265 46.5886 50.0839C46.482 50.0022 46.3846 49.9036 46.2688 49.8442C42.6352 47.963 38.7938 47.3607 34.7981 48.1693C25.6856 50.0133 19.0101 58.8316 20.9289 68.7058C22.0464 74.457 25.1287 78.816 30.3154 81.5801C33.4895 83.2716 36.8952 83.6192 40.3837 83.2958C42.0764 83.1378 43.7637 82.7753 45.2745 81.8831C45.2671 81.766 45.2634 81.6489 45.2634 81.5299C45.2653 81.647 45.2671 81.7641 45.2745 81.8831C45.574 81.7121 45.8608 81.5076 46.1769 81.3719C48.5478 80.3588 50.3656 78.632 51.8892 76.6133ZM45.2616 81.5262C45.2598 81.2957 45.2671 81.0633 45.2726 80.8328C45.2671 81.0652 45.2598 81.2957 45.2616 81.5262ZM45.2781 80.4722C45.2781 80.4704 45.2781 80.4704 45.2781 80.4685C45.2781 80.4685 45.2781 80.4704 45.2781 80.4722ZM45.9655 78.5632C45.6935 78.7435 45.4049 78.8996 45.1237 79.0688C42.7491 80.1767 40.2844 80.8124 37.6378 80.7139C33.1329 80.5466 29.5048 78.6227 26.5862 75.2303C24.1968 72.4532 23.1951 69.1482 23.2282 65.5327C23.2558 62.501 24.1251 59.6347 25.8252 57.1643C28.7016 52.9856 32.633 50.6267 37.8124 50.5524C40.845 50.5078 43.6056 51.2717 46.2008 52.7904C50.4979 55.8296 52.8891 60.0139 53.0858 65.2911C53.299 71.0628 50.7038 75.4366 45.9655 78.5632Z" fill="#00BAEF"/>
<path d="M55.5595 41.842C55.5522 40.7992 55.089 40.2731 54.091 40.2564C52.4846 40.2267 50.8764 40.2285 49.2701 40.2638C48.2941 40.2843 47.8034 40.7899 47.7905 41.7583C47.7685 43.4108 47.7685 45.0652 47.7905 46.7177C47.8015 47.5728 48.3272 48.1397 49.0514 48.1658C49.7829 48.1918 50.3287 47.6583 50.382 46.7958C50.4243 46.1099 50.4004 45.4184 50.4004 44.7306C50.4022 42.8848 50.4004 42.9127 52.1998 42.8959C52.8136 42.8904 52.9864 43.0651 52.9772 43.6841C52.9423 46.108 52.9588 48.5338 52.9662 50.9577C52.968 51.9169 53.4955 52.5377 54.2675 52.534C55.0229 52.5284 55.5522 51.8871 55.5595 50.9373C55.5687 49.4502 55.5614 47.9613 55.5614 46.4742C55.5632 44.9277 55.5706 43.3848 55.5595 41.842Z" fill="#00BAEF"/>
<path d="M59.9909 63.1814C58.9469 63.1833 58.3625 63.661 58.3588 64.4919C58.3533 65.3302 58.9286 65.8117 59.9743 65.8135C62.4519 65.8191 64.9313 65.8154 67.4089 65.8154C67.4089 65.8191 67.4089 65.8247 67.4089 65.8284C69.8607 65.8284 72.3107 65.8303 74.7625 65.8265C75.0345 65.8265 75.3194 65.8507 75.573 65.7763C76.1796 65.596 76.538 65.1797 76.5398 64.5086C76.5416 63.9603 76.3303 63.4918 75.8065 63.345C75.2955 63.2037 74.7423 63.1721 74.2074 63.1721C69.4692 63.1665 64.7291 63.174 59.9909 63.1814Z" fill="#00BAEF"/>
<path d="M42.6131 29.908C42.6389 29.2277 42.0415 28.6161 41.3266 28.5901C40.562 28.5622 39.9205 29.1459 39.9187 29.8708C39.9169 30.5326 40.5454 31.1962 41.2071 31.2315C41.8945 31.2687 42.5874 30.6143 42.6131 29.908Z" fill="#00BAEF"/>
<path d="M35.9707 31.2279C36.6599 31.2688 37.362 30.6052 37.3786 29.8951C37.3951 29.2055 36.7904 28.6051 36.0644 28.592C35.3053 28.579 34.7576 29.0865 34.7117 29.8449C34.6731 30.5048 35.2943 31.187 35.9707 31.2279Z" fill="#00BAEF"/>
<path d="M32.1496 29.8486C32.1331 29.1534 31.5229 28.5883 30.7932 28.5958C30.1132 28.6014 29.4883 29.2222 29.4809 29.8988C29.4736 30.5587 30.1242 31.2186 30.7895 31.226C31.4788 31.2372 32.1662 30.5401 32.1496 29.8486Z" fill="#00BAEF"/>
</svg>
