<svg width="106" height="106" viewBox="0 0 106 106" fill="none" xmlns="http://www.w3.org/2000/svg">
<path d="M105.47 52.9676C105.47 81.9279 81.9789 105.405 53 105.405C24.0211 105.405 0.529676 81.9279 0.529676 52.9676C0.529676 24.0072 24.0211 0.529676 53 0.529676C81.9789 0.529676 105.47 24.0072 105.47 52.9676Z" fill="#EBFAFF" stroke="#00BAEF" stroke-width="1.05935"/>
<path d="M85.3625 72.1266C85.359 71.553 85.3172 70.9567 85.0275 70.4319C84.4082 69.3073 83.4574 68.7128 82.1647 68.711C78.3353 68.7076 74.506 68.7041 70.6784 68.718C70.2998 68.7198 70.0277 68.6186 69.7677 68.3379C67.8365 66.2475 65.6121 64.4516 63.7297 62.3089C63.414 61.9497 63.3599 61.7631 63.6704 61.3709C65.2458 59.3815 66.1913 57.1167 66.4513 54.5851C66.4897 54.212 66.5961 54.0533 67.0008 54.0621C68.0877 54.0865 69.1763 54.0917 70.2632 54.0603C70.6906 54.0481 70.7674 54.212 70.7586 54.5903C70.736 55.5039 70.7307 56.421 70.7586 57.3346C70.8075 58.9352 72.1299 60.3091 73.7262 60.33C76.6187 60.3666 79.5129 60.3666 82.4054 60.33C83.9459 60.3108 85.3241 58.991 85.3486 57.4567C85.3957 54.4962 85.3468 51.534 85.3381 48.5735C85.1113 46.823 83.8814 45.7176 82.1298 45.7124C79.417 45.7037 76.7059 45.7037 73.9931 45.7124C72.2433 45.7176 71.0081 46.8282 70.7831 48.5735C70.7726 49.5516 70.7447 50.5297 70.7586 51.5061C70.7639 51.8722 70.6575 51.996 70.2841 51.9873C69.2635 51.9646 68.2412 51.9489 67.2224 51.9925C66.6798 52.0152 66.4966 51.8757 66.4251 51.2986C66.2349 49.7486 65.8581 48.237 65.0504 46.8701C64.7486 46.347 64.4607 45.8152 64.1397 45.3044C63.8989 44.9208 63.3651 44.5268 63.4122 44.2042C63.468 43.8172 64.0001 43.4981 64.3334 43.1564C67.0811 40.3389 69.9596 37.6486 72.6323 34.7561C72.9865 34.3726 73.4209 34.1773 74.0036 34.1878C76.3954 34.2296 78.7889 34.2383 81.1825 34.1965C83.85 34.1494 85.53 32.1025 85.3381 29.5866C85.2125 27.9355 84.253 26.7691 82.7177 26.1362C82.3392 25.981 82.1542 25.8084 82.0513 25.39C81.3622 22.5864 78.8674 20.625 76.0273 20.6093C73.1365 20.5936 70.6226 22.5202 69.9125 25.3447C69.8044 25.7753 69.6316 25.9828 69.2147 26.1414C67.5137 26.79 66.4722 28.483 66.5821 30.3189C66.6868 32.0642 67.99 33.6107 69.7328 34.0587C69.8933 34.1006 70.0905 34.0535 70.3417 34.3865C67.5975 37.1169 64.8131 39.8088 62.0392 42.5078C61.8456 42.6961 61.7339 42.6438 61.5577 42.5026C59.473 40.8271 57.1143 39.8019 54.4416 39.5421C54.1502 39.5142 54.0351 39.3887 54.0386 39.0835C54.0525 37.9503 54.0578 36.8187 54.0386 35.6854C54.0334 35.3367 54.1468 35.2374 54.4852 35.2443C55.4203 35.2635 56.3571 35.2705 57.2905 35.2426C58.9252 35.1938 60.2824 33.8582 60.3016 32.2211C60.333 29.3687 60.3313 26.5146 60.3051 23.6622C60.2894 21.9936 58.9217 20.6302 57.2556 20.6163C54.4276 20.5919 51.5997 20.5936 48.7717 20.6145C47.0707 20.6267 45.7065 21.9954 45.6943 23.7023C45.6733 26.5111 45.6768 29.3216 45.696 32.1322C45.7082 33.8739 47.0725 35.2182 48.8153 35.2478C49.7068 35.2635 50.6 35.2687 51.4915 35.2426C51.8666 35.2321 51.973 35.3559 51.966 35.7238C51.9451 36.8117 51.9416 37.9014 51.9695 38.9911C51.98 39.3887 51.8352 39.5177 51.4601 39.556C48.8851 39.8245 46.5892 40.7974 44.5742 42.4119C44.2288 42.6891 44.0648 42.6194 43.7962 42.3439C42.6099 41.1287 41.4026 39.9344 40.2041 38.7331C39.194 37.7201 39.194 37.7201 39.9459 36.5537C42.8209 32.0955 41.6172 25.8276 37.336 22.7486C34.9669 21.0452 32.3919 20.3233 29.4802 20.7278C23.7108 21.5281 19.5971 27.3915 20.8305 33.1207C22.4617 40.6911 30.97 43.9724 37.2697 39.4532C37.5593 39.2457 37.7268 39.1882 38.0146 39.4845C39.4417 40.9508 40.888 42.398 42.3517 43.8276C42.6657 44.1345 42.6099 44.3228 42.3726 44.6244C41.8213 45.3218 41.2822 46.0332 40.9473 46.8718C40.1622 48.2753 39.7104 49.787 39.5586 51.3823C39.5132 51.853 39.3702 52.0117 38.8887 51.9942C37.8245 51.9559 36.7568 51.9716 35.6909 51.989C35.3524 51.9942 35.2355 51.8949 35.2425 51.5462C35.2634 50.6326 35.2634 49.7155 35.246 48.8019C35.2128 47.095 33.8678 45.7263 32.1651 45.7141C29.3371 45.6932 26.5091 45.6915 23.6812 45.7159C22.0151 45.7298 20.6508 47.0985 20.6351 48.767C20.6107 51.5985 20.6125 54.4299 20.6334 57.2614C20.6456 58.9631 22.0168 60.3282 23.7213 60.3404C26.5283 60.3614 29.3336 60.3614 32.1406 60.3404C33.8747 60.3282 35.2181 58.9526 35.246 57.2074C35.2599 56.3147 35.2599 55.4202 35.2442 54.5276C35.239 54.2085 35.3053 54.0586 35.6699 54.0638C36.8004 54.0847 37.9326 54.083 39.0631 54.0655C39.4086 54.0603 39.508 54.205 39.5394 54.5206C39.7976 57.1254 40.778 59.439 42.4075 61.4772C42.6535 61.7841 42.6308 61.9427 42.3586 62.213C40.4239 64.1256 38.5083 66.0574 36.5858 67.9823C35.5356 69.0336 35.553 69.0162 36.6015 70.0937C36.9574 70.4598 37.1423 70.411 37.4738 70.0745C39.5446 67.9648 41.673 65.9092 43.674 63.7298C44.016 63.3567 44.2375 63.3707 44.6196 63.6758C46.6224 65.2711 48.8973 66.2353 51.4514 66.495C51.8282 66.5334 51.9782 66.652 51.9678 67.0512C51.9434 68.1183 51.9329 69.187 51.9713 70.2523C51.9887 70.7405 51.7968 70.8068 51.3711 70.8137C50.3575 70.8346 49.3457 70.744 48.3251 70.9096C46.8631 71.1485 45.7169 72.3114 45.703 73.8317C45.6768 76.6841 45.6768 79.5383 45.703 82.3924C45.7187 84.0295 47.069 85.4069 48.6967 85.4261C51.5683 85.4592 54.4398 85.4592 57.3114 85.4261C58.9129 85.4069 60.2789 84.054 60.2981 82.4534C60.3348 79.5574 60.3348 76.6597 60.2964 73.762C60.2772 72.2469 59.0595 71.0944 57.6063 70.9044C56.6084 70.7736 55.6192 70.8207 54.6265 70.812C54.1869 70.8085 54.0124 70.7178 54.0351 70.2419C54.0752 69.4381 54.0456 68.6309 54.0456 67.8253C54.0456 66.6467 54.0421 66.6293 55.2109 66.427C57.5277 66.0243 59.6108 65.1072 61.4513 63.6374C61.6502 63.4788 61.8002 63.2974 62.0898 63.5921C63.6565 65.1944 65.2475 66.774 66.8368 68.3536C67.0985 68.6152 67.1962 68.7233 66.7199 68.8715C65.3382 69.3056 64.4991 70.4424 64.4956 71.8389C64.4851 75.3242 64.4816 78.8095 64.4973 82.2948C64.5061 84.0731 65.8686 85.4296 67.655 85.4331C72.5067 85.4453 77.3584 85.4174 82.2083 85.4488C83.8186 85.4592 85.4096 83.8709 85.3887 82.2547C85.3433 78.8792 85.3817 75.502 85.3625 72.1266ZM81.7774 58.2517C79.26 58.2517 76.7408 58.2535 74.2216 58.2517C73.1034 58.25 72.5329 57.4584 72.8417 56.3757C72.9359 56.0444 73.1853 56.17 73.3703 56.1682C74.9334 56.1578 76.4966 56.1612 78.0597 56.1612C79.6228 56.1612 81.186 56.1752 82.7491 56.1525C83.1748 56.1456 83.2969 56.2693 83.2952 56.6965C83.2865 57.9292 82.9951 58.2517 81.7774 58.2517ZM81.7722 54.069C80.5353 54.069 79.2966 54.069 78.0597 54.069C76.4966 54.069 74.9334 54.0533 73.3703 54.0795C72.9324 54.0865 72.8329 53.9435 72.8312 53.5268C72.8277 51.9786 72.8138 51.9786 74.3839 51.9786C77.1421 51.9786 79.8985 51.9873 82.6567 51.9698C83.1015 51.9664 83.3074 52.0187 83.2987 52.5539C83.2743 54.069 83.3022 54.069 81.7722 54.069ZM74.1885 47.7819C76.7705 47.8028 79.3542 47.8028 81.9362 47.7819C82.5747 47.7767 83.03 47.9789 83.2847 48.5752C83.2777 49.8863 83.2777 49.8863 81.9641 49.8863C79.1884 49.8863 76.4128 49.8637 73.6389 49.9038C72.99 49.9125 72.7178 49.7608 72.8364 49.0948C72.8661 48.9274 72.8382 48.7478 72.8382 48.5752C73.0946 47.9789 73.55 47.7767 74.1885 47.7819ZM68.6651 30.0434C68.6529 28.8788 69.5688 27.9652 70.7813 27.932C71.7845 27.9041 71.8036 27.9041 71.7949 26.9016C71.7792 25.2418 72.9917 23.1356 75.2317 22.7695C77.1124 22.4609 79.0122 23.446 79.8078 25.2383C80.0241 25.7265 80.0695 25.988 79.4484 26.2495C78.0632 26.8319 77.3217 27.9756 77.0426 29.4419C76.9554 29.9057 77.0967 30.0922 77.5677 30.0243C77.6951 30.0051 77.8294 30.0138 77.9585 30.0225C78.618 30.0678 79.1152 30.0766 79.3385 29.1752C79.5845 28.1848 80.7603 27.7333 81.7285 28.007C82.7212 28.2877 83.3719 29.2222 83.2725 30.2265C83.1713 31.2499 82.313 32.0868 81.2628 32.1025C79.5007 32.1287 77.7387 32.1095 75.9784 32.1095C74.2391 32.1112 72.498 32.1252 70.7586 32.106C69.5828 32.0921 68.6774 31.1767 68.6651 30.0434ZM36.4864 37.4289C35.0017 38.6913 33.0164 39.4357 30.1919 39.4305C28.8469 39.4235 26.9906 38.5762 25.3403 37.1971C25.2408 37.1151 25.1972 37.0802 25.2618 36.9512C27.1895 33.1085 31.3905 32.1618 34.4888 34.2052C35.417 34.8172 36.1113 35.6349 36.6434 36.6078C36.837 36.9565 36.7952 37.1657 36.4864 37.4289ZM28.9812 28.9171C29.0109 27.7821 29.9704 26.865 31.1078 26.8859C32.2383 26.9069 33.1664 27.864 33.1542 28.9991C33.142 30.1323 32.1912 31.0686 31.059 31.0634C29.8988 31.0582 28.9498 30.0783 28.9812 28.9171ZM37.9379 34.7335C37.1284 33.5217 35.9892 32.6849 34.747 31.984C34.3772 31.7747 34.2446 31.6823 34.529 31.2534C35.7135 29.4646 35.3873 27.1719 33.8067 25.8172C32.2017 24.4433 29.9041 24.4485 28.3113 25.8294C26.7359 27.1945 26.4289 29.4663 27.6152 31.2709C27.8682 31.6544 27.8245 31.7782 27.425 31.963C25.9299 32.6587 24.796 33.778 23.8975 35.1659C22.2157 32.7807 22.0919 28.2616 25.1222 25.1982C28.1525 22.1331 32.9257 21.8611 36.3276 24.5828C39.4818 27.1056 40.3803 31.8497 38.3112 35.1415C38.0844 35.0525 38.0303 34.873 37.9379 34.7335ZM61.8578 45.7071C60.668 45.7071 59.6387 45.7071 58.6076 45.7071C58.4733 45.7071 58.3303 45.6932 58.2866 45.5467C57.9622 44.4553 57.5103 43.4144 57.0375 42.3579C58.9286 42.9977 60.4761 44.0857 61.8578 45.7071ZM49.2898 22.7032C51.8073 22.7032 54.3247 22.7015 56.8421 22.7032C57.9517 22.705 58.5344 23.5157 58.2169 24.5845C58.1192 24.9158 57.8679 24.7798 57.6848 24.7815C56.1216 24.7937 54.5602 24.7885 52.9971 24.7885C51.4339 24.7885 49.8725 24.7728 48.3094 24.7989C47.8802 24.8059 47.7651 24.6786 47.7686 24.255C47.779 23.0206 48.0669 22.7032 49.2898 22.7032ZM49.2864 26.8842C52.0672 26.8842 54.8481 26.8981 57.6272 26.872C58.1296 26.8668 58.236 27.015 58.2291 27.4909C58.2081 28.9729 58.2291 28.9729 56.7409 28.9729C55.4814 28.9729 54.2218 28.9729 52.9622 28.9729C51.42 28.9729 49.8778 28.9537 48.3356 28.9851C47.8663 28.9938 47.7616 28.8474 47.7668 28.401C47.779 26.8842 47.7616 26.8842 49.2864 26.8842ZM49.159 33.1556C48.0407 33.1539 47.4737 32.371 47.7773 31.2778C47.8715 30.9413 48.121 31.0738 48.3042 31.0721C49.8673 31.0599 51.4304 31.0651 52.9953 31.0651C54.5602 31.0651 56.1234 31.0791 57.6848 31.0564C58.1069 31.0494 58.2343 31.1663 58.2308 31.5969C58.2221 32.8313 57.9307 33.1556 56.7148 33.1556C54.1956 33.1573 51.6764 33.1591 49.159 33.1556ZM49.9615 45.3794C50.368 44.2496 50.8129 43.1424 51.6503 42.2515C52.5662 41.2769 53.4123 41.2699 54.3247 42.2323C55.2441 43.2017 55.7012 44.4135 56.1426 45.7089C54.1154 45.7089 52.1632 45.7071 50.211 45.7106C49.958 45.7124 49.8586 45.6653 49.9615 45.3794ZM49.0735 42.2149C48.503 43.3743 48.0582 44.3751 47.7616 45.4334C47.6831 45.7159 47.4772 45.7124 47.2539 45.7106C46.2787 45.7071 45.3035 45.7089 44.1782 45.7089C45.4849 44.0682 47.069 43.0343 49.0735 42.2149ZM31.6434 58.2517C29.1243 58.2517 26.6068 58.2535 24.0877 58.2517C22.9746 58.25 22.3954 57.4427 22.7129 56.3705C22.8106 56.0427 23.0601 56.17 23.245 56.1682C24.8082 56.1578 26.3713 56.1612 27.9345 56.1612C29.4976 56.1612 31.0607 56.1769 32.6239 56.1508C33.0565 56.1438 33.1682 56.2781 33.1647 56.7C33.1577 57.9327 32.8664 58.2517 31.6434 58.2517ZM31.619 54.069C28.8399 54.069 26.0608 54.0586 23.2817 54.0795C22.8281 54.083 22.6972 53.9627 22.7007 53.5024C22.7112 51.9786 22.692 51.9786 24.215 51.9786C25.4519 51.9786 26.6906 51.9786 27.9275 51.9786C29.4906 51.9786 31.0538 51.9925 32.6169 51.9698C33.0408 51.9629 33.163 52.0832 33.1647 52.5121C33.1682 54.069 33.1856 54.069 31.619 54.069ZM33.1525 49.6771C33.0548 50.0066 32.8053 49.8776 32.6204 49.8794C31.0573 49.8898 29.4941 49.8863 27.931 49.8863C26.3678 49.8863 24.8047 49.8707 23.2415 49.8968C22.8089 49.9038 22.6972 49.7695 22.7007 49.3476C22.7077 48.1149 22.9973 47.7976 24.2202 47.7976C26.7377 47.7976 29.2568 47.7959 31.7743 47.7976C32.8891 47.7976 33.47 48.6049 33.1525 49.6771ZM63.8902 51.9855C63.1976 51.9559 62.5033 51.9768 61.8089 51.9768C61.0937 51.9768 60.3766 51.9646 59.6614 51.982C59.3613 51.989 59.2531 51.8966 59.2287 51.5845C59.1397 50.4617 59.0944 49.3319 58.8781 48.2213C58.8205 47.9284 58.899 47.7872 59.2374 47.7906C60.4517 47.8063 61.6659 47.7994 62.8819 47.7941C63.093 47.7941 63.2378 47.8377 63.3424 48.0574C63.8571 49.1436 64.206 50.2751 64.37 51.4677C64.4258 51.8792 64.2985 52.003 63.8902 51.9855ZM56.7183 51.9838C55.4569 51.9681 54.1956 51.9768 52.9343 51.9768C51.7602 51.9768 50.5843 51.9576 49.4102 51.9873C48.9566 51.9977 48.7857 51.8862 48.852 51.4084C48.9968 50.3745 49.1049 49.3371 49.2236 48.2997C49.2637 47.9493 49.3945 47.7819 49.7993 47.7872C51.9311 47.8098 54.063 47.8098 56.1931 47.7872C56.5979 47.7837 56.7305 47.9476 56.7706 48.2997C56.891 49.3807 57.0114 50.46 57.1457 51.5392C57.191 51.8896 57.0585 51.9873 56.7183 51.9838ZM41.6259 51.4886C41.7777 50.2926 42.1336 49.1645 42.6447 48.0766C42.7442 47.8656 42.8733 47.7941 43.0948 47.7941C44.3091 47.8011 45.525 47.8116 46.7393 47.7889C47.137 47.7819 47.1737 47.9667 47.1126 48.2666C46.8945 49.3546 46.8474 50.4634 46.7689 51.5653C46.7428 51.9228 46.6032 51.9925 46.2892 51.9838C45.5739 51.9664 44.8569 51.9786 44.1416 51.9786C43.4472 51.9786 42.7529 51.9594 42.0603 51.9855C41.6643 52.0012 41.5806 51.8478 41.6259 51.4886ZM43.1629 58.2569C42.889 58.2604 42.732 58.1785 42.6151 57.9187C42.1406 56.8639 41.7916 55.7777 41.6311 54.6287C41.5736 54.2225 41.6573 54.0359 42.1214 54.0603C42.814 54.0969 43.5083 54.069 44.2027 54.069C44.897 54.069 45.5913 54.0795 46.2857 54.0638C46.5945 54.0568 46.7428 54.1161 46.7689 54.4788C46.8474 55.5807 46.8893 56.6895 47.1161 57.7775C47.1946 58.1558 47.0515 58.2639 46.6782 58.2587C45.5059 58.2395 44.3335 58.2447 43.1629 58.2569ZM44.1608 60.3439C45.3122 60.3439 46.2892 60.3474 47.2679 60.3422C47.5017 60.3404 47.6883 60.3631 47.7651 60.6386C48.0599 61.6847 48.4838 62.6802 49.0927 63.8153C47.0725 63.0551 45.5285 61.9671 44.1608 60.3439ZM56.7078 83.3478C54.1886 83.3478 51.6695 83.3496 49.1503 83.3478C48.039 83.3461 47.4563 82.5319 47.779 81.4631C47.8785 81.1353 48.1262 81.2626 48.3129 81.2626C49.8987 81.2521 51.4828 81.2556 53.0686 81.2556C54.6108 81.2556 56.153 81.2713 57.6935 81.2452C58.1314 81.2382 58.2326 81.3829 58.2308 81.7979C58.2238 83.0305 57.9325 83.3478 56.7078 83.3478ZM56.6555 79.1651C53.8973 79.1651 51.1391 79.1529 48.3809 79.1756C47.9012 79.1791 47.7546 79.0658 47.7616 78.5671C47.7825 77.0712 47.7598 77.0712 49.241 77.0712C50.5006 77.0712 51.7602 77.0712 53.0198 77.0712C54.5829 77.0712 56.1478 77.0834 57.7109 77.0625C58.1052 77.0572 58.2256 77.1601 58.2291 77.5698C58.2483 79.1669 58.264 79.1651 56.6555 79.1651ZM56.8561 72.892C57.9552 72.8937 58.557 73.7446 58.2151 74.7854C58.1104 75.1045 57.8592 74.9737 57.6743 74.9755C56.1111 74.9877 54.548 74.9825 52.9831 74.9825C51.4409 74.9825 49.8987 74.9668 48.3582 74.9929C47.9221 74.9999 47.7564 74.9075 47.7633 74.4298C47.7825 73.2006 48.0617 72.892 49.2986 72.892C51.8177 72.8903 54.3369 72.8903 56.8561 72.892ZM54.1694 63.9617C53.3756 64.7236 52.6133 64.7184 51.8177 63.9565C50.8094 62.9923 50.3523 61.723 49.8638 60.3927C51.9695 60.3927 54.0159 60.3927 56.1199 60.3927C55.6698 61.7039 55.1918 62.9819 54.1694 63.9617ZM56.16 58.2622C54.0508 58.2378 51.9399 58.2378 49.8289 58.2622C49.391 58.2674 49.2584 58.0948 49.2166 57.7112C49.1032 56.6512 48.9863 55.5929 48.8485 54.5363C48.7979 54.144 48.9531 54.0568 49.3125 54.0621C50.5529 54.0795 51.7916 54.069 53.032 54.069C54.2288 54.069 55.4255 54.0847 56.6206 54.0603C57.048 54.0516 57.1998 54.1649 57.137 54.6095C56.9939 55.6434 56.884 56.6808 56.7741 57.7199C56.7357 58.1105 56.5874 58.2674 56.16 58.2622ZM56.9451 63.8065C57.4824 62.6523 57.9604 61.6428 58.257 60.5671C58.3268 60.3178 58.5413 60.3439 58.7367 60.3439C59.712 60.3439 60.6872 60.3439 61.8369 60.3439C60.4761 61.9654 58.9252 63.0342 56.9451 63.8065ZM62.8121 58.2535C61.6415 58.2517 60.4709 58.236 59.3002 58.2604C58.8938 58.2691 58.8135 58.1035 58.885 57.7583C59.1066 56.693 59.145 55.6068 59.2252 54.5258C59.2531 54.1545 59.377 54.0516 59.7294 54.0621C60.4447 54.0847 61.16 54.069 61.8752 54.069C62.5696 54.069 63.2639 54.083 63.9565 54.0638C64.3002 54.0533 64.4153 54.1667 64.3717 54.5136C64.22 55.7306 63.8641 56.8813 63.3407 57.9867C63.2203 58.243 63.0354 58.2535 62.8121 58.2535ZM81.9553 83.3478C77.2607 83.3496 72.5643 83.3513 67.8696 83.3478C66.9363 83.3478 66.5751 82.98 66.5751 82.0385C66.5717 78.731 66.5717 75.4218 66.5751 72.1144C66.5769 71.1694 66.9363 70.805 67.8696 70.8033C70.2178 70.7998 72.5643 70.8015 74.9125 70.8015C77.2607 70.8015 79.6071 70.7998 81.9553 70.8033C82.9306 70.805 83.283 71.1607 83.283 72.1458C83.2865 75.4323 83.2865 78.7188 83.283 82.0053C83.283 82.9904 82.9306 83.3478 81.9553 83.3478Z" fill="#00BAEF"/>
<path d="M21.5857 73.4936C20.8094 74.1335 20.8094 74.1335 21.5369 74.864C21.6607 74.9878 21.802 75.0976 21.9015 75.2354C22.1876 75.6311 22.4022 75.5858 22.765 75.2598C26.1181 72.2592 31.1495 72.0988 34.7102 74.8518C35.6784 75.6015 35.6802 75.6015 36.5699 74.7071C36.7356 74.5397 36.8944 74.3653 37.1194 74.1265C36.9083 73.9504 36.7252 73.8022 36.5472 73.647C32.266 69.9107 26.0169 69.8462 21.5857 73.4936Z" fill="#00BAEF"/>
<path d="M29.0231 79.1669C27.2803 79.1478 25.8532 80.5495 25.8462 82.2878C25.8392 84.0226 27.2628 85.4471 28.9952 85.4384C30.6961 85.4296 32.1023 84.0191 32.1075 82.3157C32.1145 80.6036 30.7258 79.1861 29.0231 79.1669ZM28.9516 83.3444C28.3863 83.3304 27.9327 82.858 27.938 82.2913C27.9432 81.7247 28.4055 81.2626 28.9725 81.2592C29.5377 81.2557 30.007 81.7125 30.0193 82.2791C30.0315 82.8702 29.5395 83.3601 28.9516 83.3444Z" fill="#00BAEF"/>
<path d="M33.7718 76.7696C32.3866 75.6102 30.8008 75.0069 29.0073 74.979C27.4075 74.9947 25.9648 75.4532 24.679 76.393C23.7474 77.073 23.7492 77.0747 24.5395 77.8645C24.6162 77.9412 24.7052 78.0092 24.768 78.0964C25.082 78.5323 25.3507 78.5462 25.8025 78.1871C27.5209 76.8254 29.7819 76.7243 31.6643 77.8087C32.0429 78.0267 32.3255 78.616 32.7721 78.4416C33.1821 78.2812 33.4525 77.7895 33.8136 77.4809C34.1451 77.1967 34.0683 77.0172 33.7718 76.7696Z" fill="#00BAEF"/>
<path d="M79.6892 79.1809C79.1675 79.1878 79.0733 79.0048 79.0978 78.5445C79.1344 77.8715 79.1065 77.195 79.1065 76.5185C79.1065 74.8604 79.1065 74.8709 77.4142 74.9738C77.095 74.9929 77.0077 75.0975 77.0147 75.3992C77.0304 76.1611 77.02 76.923 77.02 77.6867C77.02 79.1809 77.02 79.1582 75.5336 79.1791C75.0468 79.1861 74.9108 79.0571 74.9177 78.5654C74.9387 77.0485 74.916 77.0712 73.3895 77.0625C72.8993 77.059 72.8312 77.2421 72.8347 77.6675C72.8434 79.1896 72.8277 79.1687 71.3117 79.1791C70.8372 79.1826 70.736 79.0274 70.7447 78.5846C70.7709 77.1915 70.7552 75.7967 70.7552 74.4019C70.7552 72.8484 70.7552 72.8641 69.1676 72.8815C68.7629 72.885 68.6547 73.0001 68.6582 73.3994C68.6756 75.8385 68.6774 78.2795 68.6582 80.7186C68.6547 81.1441 68.7716 81.2713 69.2025 81.2661C71.1163 81.2434 73.0318 81.2556 74.9457 81.2556C76.8595 81.2556 78.775 81.2452 80.6888 81.2644C81.0813 81.2678 81.2052 81.1685 81.2087 80.757C81.2209 79.1843 81.2384 79.1582 79.6892 79.1809Z" fill="#00BAEF"/>
</svg>
